#!OML:ASF E:\Mandelcareful walks\Project 1\Capture day 1\Session 1\Subject1.ASF
:FULLY-SPECIFIED
:DEGREES
803
root -2.76609 14.0866 -0.844294 31.3241 64.832 12.9724
lowerback 43.5721 7.65209 -9.15875
upperback 9.92182 6.60355 2.16271
thorax -10.1263 3.40151 3.97412
lowerneck -26.9026 -11.3513 -12.9776
upperneck 14.5214 -13.4105 12.3356
head 10.7977 -5.52449 4.12544
rclavicle -2.22639e-014 -4.92986e-014
rhumerus 12.9038 32.2841 -56.9287
rradius 78.165
rwrist -37.3547
rhand -13.729 -39.6279
rfingers 7.12502
rthumb 12.3904 -69.2407
lclavicle -2.22639e-014 -4.92986e-014
lhumerus -19.75 -20.2273 80.3135
lradius 49.4748
lwrist 26.0504
lhand -25.8551 -18.4249
lfingers 7.12502
lthumb 0.685667 11.5538
rfemur -65.9212 -6.87234 3.06837
rtibia 77.5184
rfoot -24.936 -4.4479
rtoes -14.8041
lfemur -59.9418 36.9282 -20.9244
ltibia 75.4122
lfoot -23.1416 11.1605
ltoes -17.6896
804
root -2.76401 14.1108 -0.858128 31.4281 64.9697 13.2732
lowerback 43.0266 7.56834 -10.8305
upperback 9.80311 6.0217 3.47699
thorax -10.3069 3.14333 6.53609
lowerneck -26.1965 -10.7637 -14.6062
upperneck 14.8563 -12.0779 12.2009
head 10.712 -5.05203 4.62392
rclavicle -3.65764e-014 5.40694e-014
rhumerus 13.0076 35.6132 -55.3163
rradius 79.1165
rwrist -36.884
rhand -13.1136 -40.054
rfingers 7.12502
rthumb 12.9837 -69.63
lclavicle -3.65764e-014 5.40694e-014
lhumerus -21.3799 -16.7979 82.027
lradius 49.3228
lwrist 24.9517
lhand -25.3938 -18.1478
lfingers 7.12502
lthumb 1.13118 11.8289
rfemur -65.5068 -7.00367 2.94864
rtibia 77.2198
rfoot -24.8535 -4.43487
rtoes -14.5483
lfemur -59.5355 36.7309 -20.9538
ltibia 75.0879
lfoot -23.1461 11.203
ltoes -17.7041
805
root -2.75601 14.1321 -0.88163 31.5484 65.0264 13.7311
lowerback 43.0506 7.39619 -10.1094
upperback 9.65108 6.05115 3.10035
thorax -10.4077 3.16097 5.74311
lowerneck -26.0413 -11.0148 -14.1965
upperneck 15.0474 -12.6977 12.5077
head 10.8465 -5.27781 4.55131
rclavicle -6.36111e-015 -6.36111e-015
rhumerus 10.6789 35.2133 -56.5956
rradius 79.9425
rwrist -36.2989
rhand -12.9211 -40.0528
rfingers 7.12502
rthumb 13.1693 -69.6169
lclavicle -6.36111e-015 -6.36111e-015
lhumerus -21.4247 -18.0463 81.7934
lradius 49.0909
lwrist 24.6201
lhand -25.1967 -18.1925
lfingers 7.12502
lthumb 1.32162 11.7831
rfemur -64.9228 -7.02719 2.6139
rtibia 76.8676
rfoot -24.7838 -4.46401
rtoes -14.4096
lfemur -58.9662 36.5557 -21.0283
ltibia 74.7978
lfoot -23.2037 11.2161
ltoes -17.4471
806
root -2.7498 14.153 -0.917612 31.9033 65.0816 14.4472
lowerback 43.0762 7.18 -9.35588
upperback 9.61244 6.04506 2.6426
thorax -10.3588 3.15913 4.86891
lowerneck -26.262 -11.3302 -13.7832
upperneck 15.289 -13.3703 12.8435
head 11.0739 -5.50541 4.46769
rclavicle 1.59028e-014 4.45278e-014
rhumerus 8.64235 34.5138 -57.7675
rradius 80.6797
rwrist -35.7366
rhand -12.8778 -39.9103
rfingers 7.12502
rthumb 13.211 -69.4717
lclavicle 1.59028e-014 4.45278e-014
lhumerus -21.2299 -19.367 81.4186
lradius 48.8383
lwrist 24.493
lhand -25.447 -18.7504
lfingers 7.12502
lthumb 1.07989 11.2266
rfemur -64.2812 -7.11887 2.10126
rtibia 76.4418
rfoot -24.6259 -4.47376
rtoes -14.2285
lfemur -58.4619 36.2675 -21.2745
ltibia 74.5216
lfoot -23.3031 11.2474
ltoes -16.5108
807
root -2.74361 14.1862 -0.960276 32.0588 65.1891 15.1354
lowerback 43.2748 7.1146 -9.38628
upperback 9.52192 5.94573 2.73124
thorax -10.5188 3.12128 5.01247
lowerneck -26.1917 -11.3817 -13.8644
upperneck 15.6086 -13.4902 12.9803
head 11.2175 -5.54513 4.511
rclavicle 6.99722e-014 -9.14409e-014
rhumerus 7.12795 34.8061 -58.2053
rradius 81.3464
rwrist -35.0406
rhand -12.7026 -39.6441
rfingers 7.12502
rthumb 13.3798 -69.1944
lclavicle 6.99722e-014 -9.14409e-014
lhumerus -21.5805 -19.4236 81.6709
lradius 48.6627
lwrist 24.6281
lhand -25.5228 -18.8126
lfingers 7.12502
lthumb 1.00666 11.1648
rfemur -63.3216 -7.13067 1.58204
rtibia 75.8982
rfoot -24.4599 -4.54662
rtoes -14.4514
lfemur -57.6964 35.9719 -21.4057
ltibia 74.1973
lfoot -23.4516 11.3146
ltoes -16.0296
808
root -2.73222 14.2241 -1.01261 32.0121 65.4133 15.6245
lowerback 43.5083 7.0006 -9.41466
upperback 9.396 5.80148 2.95283
thorax -10.7421 3.06374 5.31942
lowerneck -25.933 -11.447 -14.2063
upperneck 15.825 -13.5936 13.2998
head 11.3255 -5.58189 4.67076
rclavicle -3.18055e-014 -2.54444e-014
rhumerus 5.7439 35.3373 -58.4424
rradius 81.9203
rwrist -34.2502
rhand -12.5933 -38.9923
rfingers 7.12502
rthumb 13.4852 -68.5358
lclavicle -3.18055e-014 -2.54444e-014
lhumerus -22.0956 -19.1191 82.0909
lradius 48.5112
lwrist 24.9338
lhand -25.4058 -18.4836
lfingers 7.12502
lthumb 1.11967 11.4932
rfemur -62.283 -7.19967 1.18839
rtibia 75.2954
rfoot -24.2812 -4.68989
rtoes -15.1686
lfemur -56.9259 35.5627 -21.4261
ltibia 73.8871
lfoot -23.5879 11.6109
ltoes -16.8284
809
root -2.71611 14.2555 -1.07886 32.19 65.6643 16.1453
lowerback 43.4057 6.81295 -9.38171
upperback 9.30794 5.62608 3.15868
thorax -10.8193 2.98878 5.61396
lowerneck -25.5284 -11.555 -14.4957
upperneck 15.858 -13.7827 13.6345
head 11.3515 -5.66249 4.81121
rclavicle -6.20208e-014 2.94201e-014
rhumerus 4.20947 35.6674 -58.728
rradius 82.6401
rwrist -33.4623
rhand -12.5321 -38.6563
rfingers 7.12502
rthumb 13.5442 -68.1958
lclavicle -6.20208e-014 2.94201e-014
lhumerus -22.5567 -18.8153 82.5069
lradius 48.3141
lwrist 25.1729
lhand -25.5668 -18.0735
lfingers 7.12502
lthumb 0.964165 11.904
rfemur -61.4962 -7.44285 0.76459
rtibia 74.711
rfoot -24.0046 -4.77149
rtoes -15.7758
lfemur -56.4648 34.9818 -21.6197
ltibia 73.6584
lfoot -23.8075 12.0599
ltoes -17.8154
810
root -2.69951 14.2831 -1.15425 32.2368 65.8794 16.4796
lowerback 43.2255 6.62751 -9.22153
upperback 9.22171 5.49894 3.27066
thorax -10.8606 2.93313 5.72303
lowerneck -25.1612 -11.6941 -14.4935
upperneck 16.0246 -14.0871 13.7873
head 11.4127 -5.79399 4.81379
rclavicle -2.54444e-014 -7.95139e-016
rhumerus 2.43816 35.7105 -59.2773
rradius 83.3837
rwrist -32.7549
rhand -12.3381 -38.4135
rfingers 7.12502
rthumb 13.7311 -67.9405
lclavicle -2.54444e-014 -7.95139e-016
lhumerus -22.9472 -18.755 82.8138
lradius 48.0351
lwrist 25.3387
lhand -25.9236 -17.7883
lfingers 7.12502
lthumb 0.619565 12.1906
rfemur -60.7699 -7.55623 0.325701
rtibia 74.1021
rfoot -23.6993 -4.77931
rtoes -15.534
lfemur -56.0522 34.4599 -21.7932
ltibia 73.4832
lfoot -24.1321 12.3636
ltoes -18.0743
811
root -2.685 14.3052 -1.23495 32.0014 66.0943 16.4673
lowerback 42.9748 6.42972 -8.88611
upperback 9.19515 5.42822 3.29942
thorax -10.8019 2.89724 5.63049
lowerneck -24.8665 -11.931 -14.525
upperneck 16.2037 -14.5854 14.2383
head 11.5571 -5.97625 4.89003
rclavicle -1.43125e-014 3.33958e-014
rhumerus 0.891358 35.475 -59.857
rradius 83.8734
rwrist -32.1484
rhand -12.0349 -38.1274
rfingers 7.12502
rthumb 14.0234 -67.6344
lclavicle -1.43125e-014 3.33958e-014
lhumerus -23.1283 -19.0628 82.953
lradius 47.6655
lwrist 25.608
lhand -26.1736 -17.5179
lfingers 7.12502
lthumb 0.378113 12.4615
rfemur -60.093 -7.4056 -0.061817
rtibia 73.4312
rfoot -23.3798 -4.88375
rtoes -14.9643
lfemur -55.7614 34.0333 -21.8732
ltibia 73.3628
lfoot -24.4245 12.5487
ltoes -17.8749
812
root -2.66526 14.3355 -1.32327 31.9875 66.2617 16.8619
lowerback 42.9211 6.23335 -8.63162
upperback 9.26484 5.31226 3.27109
thorax -10.6758 2.84217 5.52997
lowerneck -24.6665 -12.2194 -14.686
upperneck 16.1679 -15.174 15.0768
head 11.7103 -6.16279 5.10657
rclavicle 2.22639e-014 -2.14687e-014
rhumerus -0.293257 35.0509 -60.301
rradius 84.2172
rwrist -31.6408
rhand -11.8386 -37.8552
rfingers 7.12502
rthumb 14.2125 -67.3489
lclavicle 2.22639e-014 -2.14687e-014
lhumerus -23.1477 -19.437 83.0195
lradius 47.3461
lwrist 25.7864
lhand -26.2355 -17.0882
lfingers 7.12502
lthumb 0.318285 12.8913
rfemur -59.1618 -7.3628 -0.633675
rtibia 72.6325
rfoot -23.034 -5.07096
rtoes -15.5752
lfemur -55.2299 33.5416 -22.0843
ltibia 73.1922
lfoot -24.7441 12.7139
ltoes -17.5723
813
root -2.64136 14.3732 -1.422 32.0542 66.4162 17.3716
lowerback 42.8701 6.11846 -8.74
upperback 9.28958 5.16887 3.4704
thorax -10.6434 2.77977 5.87321
lowerneck -24.2757 -12.3728 -14.8556
upperneck 16.1676 -15.5285 15.6395
head 11.7798 -6.28619 5.27816
rclavicle -3.18055e-014 -1.35174e-014
rhumerus -1.25761 34.9786 -60.3774
rradius 84.4137
rwrist -31.2491
rhand -11.6163 -36.7587
rfingers 7.12502
rthumb 14.4267 -66.2373
lclavicle -3.18055e-014 -1.35174e-014
lhumerus -23.5306 -19.2555 83.4243
lradius 47.1378
lwrist 25.5237
lhand -26.2098 -16.9695
lfingers 7.12502
lthumb 0.343107 13.01
rfemur -58.1625 -7.63353 -1.17657
rtibia 71.7494
rfoot -22.5953 -5.07817
rtoes -16.3813
lfemur -54.6273 33.0369 -22.3939
ltibia 72.9538
lfoot -24.9886 12.9128
ltoes -17.7967
814
root -2.62105 14.4111 -1.52995 31.7796 66.708 17.3667
lowerback 42.7404 5.92484 -8.4732
upperback 9.28362 5.08962 3.67003
thorax -10.6189 2.74052 5.99938
lowerneck -23.9849 -12.6122 -14.9294
upperneck 16.3517 -16.0146 16.0642
head 11.9389 -6.4683 5.35291
rclavicle -9.54166e-015 1.35174e-014
rhumerus -2.21835 34.6017 -60.4464
rradius 84.5534
rwrist -30.9388
rhand -11.4837 -35.9839
rfingers 7.12502
rthumb 14.5545 -65.4533
lclavicle -9.54166e-015 1.35174e-014
lhumerus -23.7839 -19.5805 83.7819
lradius 46.8271
lwrist 25.4419
lhand -26.1695 -16.7828
lfingers 7.12502
lthumb 0.382019 13.1966
rfemur -57.2598 -7.73655 -1.57207
rtibia 70.8082
rfoot -22.1047 -4.97372
rtoes -15.9701
lfemur -54.2482 32.49 -22.5521
ltibia 72.6818
lfoot -25.1192 13.1492
ltoes -18.2114
815
root -2.60051 14.4543 -1.64595 31.5472 67.0298 17.3085
lowerback 42.4179 5.93615 -10.1364
upperback 9.22425 4.65113 5.18223
thorax -10.7837 2.56615 8.75027
lowerneck -23.4086 -12.1929 -16.2371
upperneck 16.9019 -15.0512 15.8164
head 11.9543 -6.16855 5.71534
rclavicle 1.43125e-014 5.56597e-015
rhumerus -1.62141 36.9819 -58.43
rradius 85.0078
rwrist -31.333
rhand -11.8831 -37.0594
rfingers 7.12502
rthumb 14.1696 -66.5561
lclavicle 1.43125e-014 5.56597e-015
lhumerus -25.0855 -16.6661 85.5308
lradius 46.4706
lwrist 24.8677
lhand -26.225 -16.6319
lfingers 7.12502
lthumb 0.328437 13.3475
rfemur -56.3976 -7.85011 -1.97861
rtibia 69.7855
rfoot -21.5509 -4.93519
rtoes -16.1661
lfemur -53.97 31.898 -22.7832
ltibia 72.3588
lfoot -25.3486 13.3656
ltoes -17.8804
816
root -2.57146 14.5052 -1.7721 31.3786 67.3631 17.4822
lowerback 42.6365 5.57469 -8.99165
upperback 9.2269 4.63665 4.85934
thorax -10.7601 2.54641 7.79563
lowerneck -23.2944 -12.6072 -15.5276
upperneck 17.0113 -16.0462 16.3167
head 12.1553 -6.50905 5.57432
rclavicle -1.90833e-014 3.02153e-014
rhumerus -2.9592 35.2414 -59.3232
rradius 85.1486
rwrist -30.9386
rhand -12.1768 -37.143
rfingers 7.12502
rthumb 13.8867 -66.6594
lclavicle -1.90833e-014 3.02153e-014
lhumerus -24.9116 -18.5605 85.3501
lradius 46.2247
lwrist 25.1811
lhand -26.3527 -16.7352
lfingers 7.12502
lthumb 0.205086 13.2445
rfemur -55.3163 -8.45108 -2.35314
rtibia 68.6817
rfoot -20.832 -4.58937
rtoes -17.1197
lfemur -53.393 31.2469 -23.0642
ltibia 71.9505
lfoot -25.7041 13.5867
ltoes -17.4269
817
root -2.54228 14.5571 -1.90412 31.0224 67.5384 17.4423
lowerback 42.8326 5.32924 -8.33341
upperback 9.19426 4.59992 4.82139
thorax -10.8205 2.52449 7.42286
lowerneck -22.7885 -12.8069 -15.2164
upperneck 16.9687 -16.6249 16.8048
head 12.1852 -6.71674 5.59379
rclavicle 2.06736e-014 1.98785e-014
rhumerus -3.95994 33.9089 -59.6939
rradius 85.0536
rwrist -30.3049
rhand -12.2293 -35.4094
rfingers 7.12502
rthumb 13.836 -64.9292
lclavicle 2.06736e-014 1.98785e-014
lhumerus -25.06 -19.7727 85.4886
lradius 46.1351
lwrist 25.5691
lhand -26.2428 -16.8496
lfingers 7.12502
lthumb 0.311284 13.1299
rfemur -54.3114 -8.92543 -2.75641
rtibia 67.4903
rfoot -19.8971 -3.98247
rtoes -17.3528
lfemur -52.7898 30.7318 -23.3413
ltibia 71.4833
lfoot -25.9814 13.7505
ltoes -16.9763
